<svg xmlns="http://www.w3.org/2000/svg" viewBox="0 0 32 32" role="img" aria-label="WhatsApp">
  <circle cx="16" cy="16" r="14" fill="#25d366" />
  <path fill="#fff" d="M16.02 6.2c-5.38 0-9.76 4.25-9.76 9.48 0 1.76.5 3.47 1.45 4.96L6.25 25.8l5.25-1.36a10.05 10.05 0 0 0 4.52.55c5.38 0 9.74-4.24 9.74-9.47 0-5.15-4.36-9.32-9.74-9.32Zm0 16.97c-1.45 0-2.86-.38-4.1-1.1l-.3-.17-3.1.8.83-2.95-.2-.31a7.46 7.46 0 0 1-1.2-4.05c0-4.28 3.62-7.76 8.07-7.76 4.45 0 8.05 3.38 8.05 7.74 0 4.28-3.6 7.8-8.05 7.8Zm4.42-5.84c-.24-.12-1.43-.68-1.65-.76-.22-.08-.38-.12-.55.12-.16.24-.62.76-.76.93-.14.16-.28.18-.53.06-.24-.12-1.03-.37-1.97-1.17-.72-.64-1.22-1.42-1.36-1.65-.14-.24-.02-.37.1-.49.1-.1.24-.28.37-.42.12-.14.16-.24.24-.4.08-.16.04-.3-.02-.42-.06-.12-.55-1.28-.75-1.75-.2-.46-.4-.39-.55-.4h-.46c-.16 0-.42.06-.64.3-.22.24-.85.82-.85 1.99 0 1.16.87 2.3 1 2.45.12.16 1.72 2.55 4.16 3.58.58.24 1.03.39 1.39.5.59.18 1.12.15 1.54.09.47-.07 1.43-.57 1.64-1.12.2-.55.2-1.03.14-1.12-.06-.1-.22-.16-.46-.28Z" />
</svg>
